<svg xmlns="http://www.w3.org/2000/svg" xmlns:xlink="http://www.w3.org/1999/xlink" viewBox="0 0 22 22"><defs><style>.cls-1{fill:url(#linear-gradient);}</style><linearGradient id="linear-gradient" x1="1.9" y1="1.9" x2="20.1" y2="20.1" gradientUnits="userSpaceOnUse"><stop offset="0" stop-color="#faa63b"/><stop offset="1" stop-color="#f27323"/></linearGradient></defs><g id="Layer_2" data-name="Layer 2"><g id="Layer_1-2" data-name="Layer 1"><path class="cls-1" d="M6.47,0A6.49,6.49,0,0,0,0,6.47v9.06A6.49,6.49,0,0,0,6.47,22h9.06A6.49,6.49,0,0,0,22,15.53V6.47A6.49,6.49,0,0,0,15.53,0Zm0,2h9.06A4.47,4.47,0,0,1,20,6.47v9.06A4.47,4.47,0,0,1,15.53,20H6.47A4.47,4.47,0,0,1,2,15.53V6.47A4.47,4.47,0,0,1,6.47,2ZM16.91,4.19a.91.91,0,1,0,.9.9A.9.9,0,0,0,16.91,4.19ZM11,5a6,6,0,1,0,6,6A6,6,0,0,0,11,5Zm0,2a4,4,0,1,1-4,4A4,4,0,0,1,11,7Z"/></g></g></svg>