<svg xmlns="http://www.w3.org/2000/svg" xmlns:xlink="http://www.w3.org/1999/xlink" viewBox="0 0 24 24" fill="#F27323">
  <path d="M12 1C10.696 1 9.5965937 1.837 9.1835938 3L5 3C3.895 3 3 3.895 3 5L3 19C3 20.105 3.895 21 5 21L10.587891 21C10.456891 20.677 10.347766 20.343 10.259766 20L10.261719 20C10.231719 19.882 10.216406 19.758672 10.191406 19.638672C10.147406 19.426672 10.095359 19.217 10.068359 19C10.025359 18.673 10 18.339 10 18C10 13.582 13.582 10 18 10C18.339 10 18.673 10.025359 19 10.068359C19.217 10.095359 19.427672 10.147406 19.638672 10.191406C19.758672 10.217406 19.882 10.231719 20 10.261719L20 10.259766C20.343 10.347766 20.677 10.456891 21 10.587891L21 5C21 3.895 20.105 3 19 3L14.816406 3C14.403406 1.837 13.304 1 12 1 z M 12 3C12.552 3 13 3.448 13 4C13 4.552 12.552 5 12 5C11.448 5 11 4.552 11 4C11 3.448 11.448 3 12 3 z M 18 12C14.7 12 12 14.7 12 18C12 21.3 14.7 24 18 24C21.3 24 24 21.3 24 18C24 14.7 21.3 12 18 12 z M 18 14C20.2 14 22 15.8 22 18C22 20.2 20.2 22 18 22C15.8 22 14 20.2 14 18C14 15.8 15.8 14 18 14 z M 18.900391 15.199219L17.199219 18.099609L19.400391 20.300781L20.300781 19.300781L18.800781 17.900391L20 15.800781L18.900391 15.199219 z" fill="#F27323" />
</svg>