<svg xmlns="http://www.w3.org/2000/svg" xmlns:xlink="http://www.w3.org/1999/xlink" viewBox="0 0 50 50" fill="#F27323">
  <path d="M25 0C19.484375 0 15 4.484375 15 10C15 11.070313 15.1875 12.085938 15.5 13.0625C19.742188 13.832031 22.824219 14.878906 24.71875 15.625L25 15.71875L25.28125 15.625C27.175781 14.878906 30.265625 13.863281 34.5 13.09375C34.816406 12.109375 35 11.058594 35 10C35 4.484375 30.515625 0 25 0 Z M 3 14C2.449219 14 2 14.449219 2 15L2 21L3 21C5.804688 21 8 23.195313 8 26L8 28C8 30.804688 5.804688 33 3 33L2 33L2 43C2 43.554688 2.449219 44 3 44C14.84375 44 22.261719 48.386719 24 49.53125L24 17.46875C21.085938 16.320313 13.84375 14 3 14 Z M 47 14C36.15625 14 28.914063 16.320313 26 17.46875L26 49.53125C27.738281 48.386719 35.160156 44 47 44C47.554688 44 48 43.554688 48 43L48 33L47 33C44.195313 33 42 30.804688 42 28L42 26C42 23.195313 44.195313 21 47 21L48 21L48 15C48 14.449219 47.554688 14 47 14 Z M 2 23C0.898438 23 0 23.898438 0 25L0 29C0 30.101563 0.898438 31 2 31L3 31C4.699219 31 6 29.699219 6 28L6 26C6 24.300781 4.699219 23 3 23 Z M 47 23C46.789063 23 46.574219 23.023438 46.375 23.0625C44.988281 23.335938 44 24.511719 44 26L44 28C44 29.699219 45.300781 31 47 31L48 31C49.101563 31 50 30.101563 50 29L50 25C50 23.898438 49.101563 23 48 23Z" fill="#F27323" />
</svg>