<svg xmlns="http://www.w3.org/2000/svg" xmlns:xlink="http://www.w3.org/1999/xlink" viewBox="0 0 32 32" fill="#FF0000">
  <path d="M14 4C13.477778 4 12.94539 4.1913289 12.568359 4.5683594C12.191329 4.9453899 12 5.4777778 12 6L12 7L7 7L6 7L6 9L7 9L7 25C7 26.645455 8.3545455 28 10 28L17 28L17 27.855469C18.367249 30.320181 20.996209 32 24 32C28.4 32 32 28.4 32 24C32 19.939374 28.931363 16.567445 25 16.070312L25 9L26 9L26 7L25 7L20 7L20 6C20 5.4777778 19.808671 4.9453899 19.431641 4.5683594C19.05461 4.1913289 18.522222 4 18 4L14 4 z M 14 6L18 6L18 7L14 7L14 6 z M 9 9L23 9L23 16.070312C22.301956 16.158582 21.631165 16.334117 21 16.591797L21 12L19 12L19 17.771484C18.18962 18.424016 17.507605 19.229482 17 20.144531L17 12L15 12L15 23L16.070312 23C16.028764 23.32857 16 23.660626 16 24C16 24.691044 16.098874 25.35927 16.265625 26L10 26C9.4454545 26 9 25.554545 9 25L9 9 z M 11 12L11 23L13 23L13 12L11 12 z M 24 18C27.3 18 30 20.7 30 24C30 27.3 27.3 30 24 30C20.7 30 18 27.3 18 24C18 20.7 20.7 18 24 18 z M 21.699219 20.300781L20.300781 21.699219L22.599609 24L20.300781 26.300781L21.699219 27.699219L24 25.400391L26.300781 27.699219L27.699219 26.300781L25.400391 24L27.699219 21.699219L26.300781 20.300781L24 22.599609L21.699219 20.300781 z" fill="#FF0000" />
</svg>