<svg xmlns="http://www.w3.org/2000/svg" xmlns:xlink="http://www.w3.org/1999/xlink" viewBox="0 0 80 80" fill="#F27323">
  <path d="M16 9C14.355469 9 13 10.355469 13 12L13 68C13 69.644531 14.355469 71 16 71L64 71C65.644531 71 67 69.644531 67 68L67 12C67 10.355469 65.644531 9 64 9 Z M 16 11L21 11L21 69L16 69C15.433594 69 15 68.566406 15 68L15 12C15 11.433594 15.433594 11 16 11 Z M 23 11L41 11L41 46.136719L48 40.300781L55 46.136719L55 11L64 11C64.566406 11 65 11.433594 65 12L65 68C65 68.566406 64.566406 69 64 69L23 69 Z M 43 11L53 11L53 41.863281L48 37.699219L43 41.863281 Z M 26 13C25.449219 13 25 13.449219 25 14C25 14.550781 25.449219 15 26 15C26.550781 15 27 14.550781 27 14C27 13.449219 26.550781 13 26 13 Z M 30 13C29.449219 13 29 13.449219 29 14C29 14.550781 29.449219 15 30 15C30.550781 15 31 14.550781 31 14C31 13.449219 30.550781 13 30 13 Z M 34 13C33.449219 13 33 13.449219 33 14C33 14.550781 33.449219 15 34 15C34.550781 15 35 14.550781 35 14C35 13.449219 34.550781 13 34 13 Z M 38 13C37.449219 13 37 13.449219 37 14C37 14.550781 37.449219 15 38 15C38.550781 15 39 14.550781 39 14C39 13.449219 38.550781 13 38 13 Z M 58 13C57.449219 13 57 13.449219 57 14C57 14.550781 57.449219 15 58 15C58.550781 15 59 14.550781 59 14C59 13.449219 58.550781 13 58 13 Z M 62 13C61.449219 13 61 13.449219 61 14C61 14.550781 61.449219 15 62 15C62.550781 15 63 14.550781 63 14C63 13.449219 62.550781 13 62 13 Z M 62 17C61.449219 17 61 17.449219 61 18C61 18.550781 61.449219 19 62 19C62.550781 19 63 18.550781 63 18C63 17.449219 62.550781 17 62 17 Z M 62 21C61.449219 21 61 21.449219 61 22C61 22.550781 61.449219 23 62 23C62.550781 23 63 22.550781 63 22C63 21.449219 62.550781 21 62 21 Z M 62 25C61.449219 25 61 25.449219 61 26C61 26.550781 61.449219 27 62 27C62.550781 27 63 26.550781 63 26C63 25.449219 62.550781 25 62 25 Z M 62 29C61.449219 29 61 29.449219 61 30C61 30.550781 61.449219 31 62 31C62.550781 31 63 30.550781 63 30C63 29.449219 62.550781 29 62 29 Z M 62 33C61.449219 33 61 33.449219 61 34C61 34.550781 61.449219 35 62 35C62.550781 35 63 34.550781 63 34C63 33.449219 62.550781 33 62 33 Z M 62 37C61.449219 37 61 37.449219 61 38C61 38.550781 61.449219 39 62 39C62.550781 39 63 38.550781 63 38C63 37.449219 62.550781 37 62 37 Z M 62 41C61.449219 41 61 41.449219 61 42C61 42.550781 61.449219 43 62 43C62.550781 43 63 42.550781 63 42C63 41.449219 62.550781 41 62 41 Z M 62 45C61.449219 45 61 45.449219 61 46C61 46.550781 61.449219 47 62 47C62.550781 47 63 46.550781 63 46C63 45.449219 62.550781 45 62 45 Z M 62 49C61.449219 49 61 49.449219 61 50C61 50.550781 61.449219 51 62 51C62.550781 51 63 50.550781 63 50C63 49.449219 62.550781 49 62 49 Z M 62 53C61.449219 53 61 53.449219 61 54C61 54.550781 61.449219 55 62 55C62.550781 55 63 54.550781 63 54C63 53.449219 62.550781 53 62 53 Z M 62 57C61.449219 57 61 57.449219 61 58C61 58.550781 61.449219 59 62 59C62.550781 59 63 58.550781 63 58C63 57.449219 62.550781 57 62 57 Z M 62 61C61.449219 61 61 61.449219 61 62C61 62.550781 61.449219 63 62 63C62.550781 63 63 62.550781 63 62C63 61.449219 62.550781 61 62 61 Z M 26 65C25.449219 65 25 65.449219 25 66C25 66.550781 25.449219 67 26 67C26.550781 67 27 66.550781 27 66C27 65.449219 26.550781 65 26 65 Z M 30 65C29.449219 65 29 65.449219 29 66C29 66.550781 29.449219 67 30 67C30.550781 67 31 66.550781 31 66C31 65.449219 30.550781 65 30 65 Z M 34 65C33.449219 65 33 65.449219 33 66C33 66.550781 33.449219 67 34 67C34.550781 67 35 66.550781 35 66C35 65.449219 34.550781 65 34 65 Z M 38 65C37.449219 65 37 65.449219 37 66C37 66.550781 37.449219 67 38 67C38.550781 67 39 66.550781 39 66C39 65.449219 38.550781 65 38 65 Z M 42 65C41.449219 65 41 65.449219 41 66C41 66.550781 41.449219 67 42 67C42.550781 67 43 66.550781 43 66C43 65.449219 42.550781 65 42 65 Z M 46 65C45.449219 65 45 65.449219 45 66C45 66.550781 45.449219 67 46 67C46.550781 67 47 66.550781 47 66C47 65.449219 46.550781 65 46 65 Z M 50 65C49.449219 65 49 65.449219 49 66C49 66.550781 49.449219 67 50 67C50.550781 67 51 66.550781 51 66C51 65.449219 50.550781 65 50 65 Z M 54 65C53.449219 65 53 65.449219 53 66C53 66.550781 53.449219 67 54 67C54.550781 67 55 66.550781 55 66C55 65.449219 54.550781 65 54 65 Z M 58 65C57.449219 65 57 65.449219 57 66C57 66.550781 57.449219 67 58 67C58.550781 67 59 66.550781 59 66C59 65.449219 58.550781 65 58 65 Z M 62 65C61.449219 65 61 65.449219 61 66C61 66.550781 61.449219 67 62 67C62.550781 67 63 66.550781 63 66C63 65.449219 62.550781 65 62 65Z" fill="#F27323" />
</svg>