<svg xmlns="http://www.w3.org/2000/svg" xmlns:xlink="http://www.w3.org/1999/xlink" viewBox="0 0 26 26" fill="#F27323">
  <path d="M3 0C2.054688 0 1.246094 0.578125 0.75 1.3125C0.253906 2.046875 0 2.972656 0 4C0 5.027344 0.253906 5.953125 0.75 6.6875C1.246094 7.421875 2.054688 8 3 8L4 8L4 21C4 23.769531 5.679688 25.789063 7.71875 25.96875C7.789063 25.988281 7.863281 25.996094 7.9375 26C7.957031 26 7.980469 26 8 26L23 26C23.03125 26 23.0625 26 23.09375 26C23.179688 26 23.261719 25.988281 23.34375 25.96875C24.136719 25.847656 24.816406 25.332031 25.25 24.6875C25.746094 23.953125 26 23.027344 26 22C26 20.972656 25.746094 20.046875 25.25 19.3125C24.753906 18.578125 23.945313 18 23 18L21 18L21 14.15625C21.003906 14.105469 21.003906 14.050781 21 14L21 7C21.007813 6.9375 21.007813 6.875 21 6.8125L21 5C21 2.101563 19.167969 0 17 0 Z M 3 2L14.5625 2C14.285156 2.617188 14 3.234375 14 4C14 4.765625 14.285156 5.382813 14.5625 6L5.21875 6C5.117188 5.972656 5.011719 5.960938 4.90625 5.96875C4.875 5.976563 4.84375 5.988281 4.8125 6L3 6C2.84375 6 2.636719 5.933594 2.40625 5.59375C2.175781 5.253906 2 4.671875 2 4C2 3.328125 2.175781 2.746094 2.40625 2.40625C2.636719 2.066406 2.84375 2 3 2 Z M 16.96875 2C16.980469 2 16.988281 2 17 2C17.832031 2 19 2.898438 19 5L19 6.8125C18.992188 6.875 18.992188 6.9375 19 7L19 14C19 14.03125 19 14.0625 19 14.09375L19 18.53125C18.867188 18.808594 18.867188 19.128906 19 19.40625L19 21C19 22.160156 19.289063 23.179688 19.78125 24L8 24C7.167969 24 6 23.101563 6 21L6 8L17 8C17.546875 7.992188 17.984375 7.546875 17.984375 7C17.984375 6.453125 17.546875 6.007813 17 6C16.84375 6 16.636719 5.933594 16.40625 5.59375C16.175781 5.253906 16 4.671875 16 4C16 3.328125 16.175781 2.746094 16.40625 2.40625C16.621094 2.085938 16.816406 2.007813 16.96875 2 Z M 9 10C8.449219 10 8 10.449219 8 11C8 11.550781 8.449219 12 9 12C9.550781 12 10 11.550781 10 11C10 10.449219 9.550781 10 9 10 Z M 11.71875 10C11.167969 10.078125 10.78125 10.589844 10.859375 11.140625C10.9375 11.691406 11.449219 12.078125 12 12L16 12C16.359375 12.003906 16.695313 11.816406 16.878906 11.503906C17.058594 11.191406 17.058594 10.808594 16.878906 10.496094C16.695313 10.183594 16.359375 9.996094 16 10L12 10C11.96875 10 11.9375 10 11.90625 10C11.875 10 11.84375 10 11.8125 10C11.78125 10 11.75 10 11.71875 10 Z M 9 14C8.449219 14 8 14.449219 8 15C8 15.550781 8.449219 16 9 16C9.550781 16 10 15.550781 10 15C10 14.449219 9.550781 14 9 14 Z M 11.71875 14C11.167969 14.078125 10.78125 14.589844 10.859375 15.140625C10.9375 15.691406 11.449219 16.078125 12 16L16 16C16.359375 16.003906 16.695313 15.816406 16.878906 15.503906C17.058594 15.191406 17.058594 14.808594 16.878906 14.496094C16.695313 14.183594 16.359375 13.996094 16 14L12 14C11.96875 14 11.9375 14 11.90625 14C11.875 14 11.84375 14 11.8125 14C11.78125 14 11.75 14 11.71875 14 Z M 9 18C8.449219 18 8 18.449219 8 19C8 19.550781 8.449219 20 9 20C9.550781 20 10 19.550781 10 19C10 18.449219 9.550781 18 9 18 Z M 11.71875 18C11.167969 18.078125 10.78125 18.589844 10.859375 19.140625C10.9375 19.691406 11.449219 20.078125 12 20L16 20C16.359375 20.003906 16.695313 19.816406 16.878906 19.503906C17.058594 19.191406 17.058594 18.808594 16.878906 18.496094C16.695313 18.183594 16.359375 17.996094 16 18L12 18C11.96875 18 11.9375 18 11.90625 18C11.875 18 11.84375 18 11.8125 18C11.78125 18 11.75 18 11.71875 18 Z M 21 20L23 20C23.15625 20 23.363281 20.066406 23.59375 20.40625C23.824219 20.746094 24 21.328125 24 22C24 22.671875 23.824219 23.253906 23.59375 23.59375C23.390625 23.898438 23.210938 23.984375 23.0625 24C23.042969 24 23.015625 24 23 24C22.167969 24 21 23.101563 21 21Z" fill="#F27323" />
</svg>