<svg xmlns="http://www.w3.org/2000/svg" xmlns:xlink="http://www.w3.org/1999/xlink" viewBox="0 0 26 26" fill="#FFFFFF">
  <path d="M2.09375 4.09375C1.839844 4.09375 1.566406 4.179688 1.375 4.375C0.988281 4.761719 0.988281 5.394531 1.375 5.78125L8.21875 12.625C8.414063 12.820313 8.652344 12.90625 8.90625 12.90625C9.160156 12.90625 9.433594 12.816406 9.625 12.625C10.011719 12.238281 10.011719 11.605469 9.625 11.21875L2.78125 4.375C2.585938 4.179688 2.347656 4.09375 2.09375 4.09375 Z M 23.90625 4.09375C23.652344 4.09375 23.414063 4.179688 23.21875 4.375L16.375 11.21875C15.988281 11.605469 15.988281 12.238281 16.375 12.625C16.566406 12.816406 16.839844 12.90625 17.09375 12.90625C17.347656 12.90625 17.585938 12.820313 17.78125 12.625L24.625 5.78125C25.011719 5.394531 25.011719 4.761719 24.625 4.375C24.433594 4.179688 24.160156 4.09375 23.90625 4.09375 Z M 1 11C0.449219 11 0 11.449219 0 12L0 15C0 15.550781 0.449219 16 1 16L2 16L2 17C2 17.089844 4 25 4 25C4.296875 25.53125 4.546875 26 5 26L21 26C21.550781 26 21.765625 25.5625 22 25C22 25 24 17.089844 24 17L24 16L25 16C25.550781 16 26 15.550781 26 15L26 12C26 11.449219 25.550781 11 25 11L20.90625 11L18.34375 13.5625C17.953125 13.953125 17.425781 14.1875 16.875 14.1875C16.324219 14.1875 15.828125 13.953125 15.4375 13.5625C14.738281 12.867188 14.636719 11.796875 15.15625 11L10.84375 11C11.363281 11.796875 11.261719 12.867188 10.5625 13.5625C10.171875 13.953125 9.675781 14.1875 9.125 14.1875C8.574219 14.1875 8.046875 13.953125 7.65625 13.5625L5.09375 11 Z M 9 16C9.550781 16 10 16.449219 10 17L10 23C10 23.550781 9.550781 24 9 24C8.449219 24 8 23.550781 8 23L8 17C8 16.449219 8.449219 16 9 16 Z M 13 16C13.550781 16 14 16.449219 14 17L14 23C14 23.550781 13.550781 24 13 24C12.449219 24 12 23.550781 12 23L12 17C12 16.449219 12.449219 16 13 16 Z M 17 16C17.550781 16 18 16.449219 18 17L18 23C18 23.550781 17.550781 24 17 24C16.449219 24 16 23.550781 16 23L16 17C16 16.449219 16.449219 16 17 16Z" fill="#FFFFFF" />
</svg>